<?xml version="1.0" encoding="utf-8"?>
<!-- Generator: Adobe Illustrator 26.0.0, SVG Export Plug-In . SVG Version: 6.00 Build 0)  -->
<svg version="1.1" id="Livello_1" xmlns="http://www.w3.org/2000/svg" xmlns:xlink="http://www.w3.org/1999/xlink" x="0px" y="0px"
	 viewBox="0 0 284 281" style="enable-background:new 0 0 284 281;" xml:space="preserve">
<style type="text/css">
	.st0{fill:#FFFFFF;}
</style>
<path class="st0" d="M245.1,227.8c4.4,4.4,4.4,11.5,0,15.8c-4.4,4.4-11.5,4.4-15.8,0l-54.8-54.8c-2.2-2.2-6-2.5-8.5-0.8
	c0,0-1.5,1.2-4.8,3c-12.3,7-26.5,11-41.6,11c-46.4,0-84-37.6-84-84c0-46.4,37.6-84,84-84c46.4,0,84,37.6,84,84
	c0,15.2-4.1,29.5-11.2,41.9c-1.8,3.2-2.8,4.4-2.8,4.4c-1.8,2.6-1.4,6.4,0.7,8.6L245.1,227.8z M119.6,179.7c34,0,61.6-27.6,61.6-61.6
	c0-34-27.6-61.6-61.6-61.6c-34,0-61.6,27.6-61.6,61.6C58,152.1,85.6,179.7,119.6,179.7z"/>
</svg>
